<svg width="32" height="31" viewBox="0 0 32 31" fill="none" xmlns="http://www.w3.org/2000/svg">
<path d="M14.0596 1.72057C14.6054 0.408317 16.4643 0.408319 17.0101 1.72058L20.1259 9.21174C20.356 9.76495 20.8762 10.1429 21.4735 10.1908L29.5608 10.8392C30.9775 10.9528 31.5519 12.7207 30.4726 13.6453L24.3109 18.9235C23.8558 19.3133 23.6571 19.9249 23.7961 20.5077L25.6786 28.3995C26.0084 29.782 24.5045 30.8747 23.2916 30.1338L16.3677 25.9047C15.8564 25.5924 15.2133 25.5924 14.702 25.9047L7.7781 30.1338C6.56521 30.8747 5.06129 29.782 5.39105 28.3995L7.27355 20.5077C7.41257 19.9249 7.21385 19.3133 6.75882 18.9235L0.597115 13.6453C-0.482255 12.7207 0.0921967 10.9528 1.50889 10.8392L9.59623 10.1908C10.1935 10.1429 10.7137 9.76495 10.9438 9.21174L14.0596 1.72057Z" fill="#F3AC41"/>
</svg>
