<svg width="52" height="51" viewBox="0 0 52 51" fill="none" xmlns="http://www.w3.org/2000/svg">
<path fill-rule="evenodd" clip-rule="evenodd" d="M33.0902 51C43.3074 51 51.5902 39.5833 51.5902 25.5C51.5902 11.4167 43.3074 0 33.0902 0C27.2704 0 22.0784 3.70405 18.6871 9.49511C16.0295 7.90858 12.7546 7 8.09014 7C-1.64069 7 -0.550252 10.9543 1.05316 16.7688C1.77033 19.3695 2.59014 22.3424 2.59014 25.5C2.59014 28.6576 1.77033 31.6305 1.05316 34.2312C-0.550253 40.0457 -1.64069 44 8.09014 44C12.7546 44 16.0295 43.0914 18.6871 41.5049C22.0784 47.296 27.2704 51 33.0902 51ZM18.6871 41.5049C16.1245 37.129 14.5902 31.5615 14.5902 25.5C14.5902 19.4385 16.1245 13.871 18.6871 9.49511C21.9024 11.4146 24.2139 14.3265 26.9889 17.8223C28.1821 19.3253 29.461 20.9364 30.9342 22.6229C32.3655 24.2614 32.3655 26.7386 30.9342 28.3771C29.461 30.0636 28.1821 31.6747 26.9889 33.1777C24.2139 36.6735 21.9024 39.5854 18.6871 41.5049Z" fill="#0D76D8"/>
</svg>
